<svg xmlns="http://www.w3.org/2000/svg" xmlns:xlink="http://www.w3.org/1999/xlink" version="1.1" width="47" height="47" xml:space="preserve" style=""><rect id="backgroundrect" width="100%" height="100%" x="0" y="0" fill="none" stroke="none" class="" style=""/>
<desc>Created with Fabric.js 1.7.22</desc>
<defs>
</defs>

<g class="currentLayer" style=""><title>Layer 1</title><g transform="translate(128,128) scale(0.5099999904632568) " style="" id="svg_1" class="" filter="">
	<g style="stroke: none; stroke-width: 0; stroke-dasharray: none; stroke-linecap: butt; stroke-linejoin: miter; stroke-miterlimit: 10; fill: none; fill-rule: nonzero; opacity: 1;" id="svg_2" filter="">
	<path d="M-162.14082600784303,-213.18626026582717 h-6.768 c-1.7120000000000002,0 -3.253,-1.04 -3.894,-2.628 l-1.944,-4.818 c-0.6300000000000028,-1.562 -0.266,-3.349 0.925,-4.54 l4.7490000000000006,-4.7490000000000006 c0.8250000000000006,-0.8250000000000006 0.8250000000000006,-2.176 0,-3.001 l-8.252,-8.252 c-0.8250000000000006,-0.8250000000000006 -2.176,-0.8250000000000006 -3.001,0 l-4.786,4.786 c-1.211,1.211 -3.036,1.565 -4.611,0.8950000000000031 l-4.781,-2.032 c-1.55,-0.6590000000000036 -2.556,-2.18 -2.556,-3.864 V-248.10726026582716 C-197.06182600784302,-249.2742602658272 -198.016826007843,-250.22926026582718 -199.183826007843,-250.22926026582718 h-11.67 c-1.167,0 -2.122,0.9550000000000006 -2.122,2.122 v6.768 c0,1.7120000000000002 -1.04,3.253 -2.628,3.894 l-4.818,1.944 c-1.562,0.6300000000000028 -3.349,0.266 -4.54,-0.925 l-4.7490000000000006,-4.7490000000000006 c-0.8250000000000006,-0.8250000000000006 -2.176,-0.8250000000000006 -3.001,0 l-8.252,8.252 c-0.8250000000000006,0.8250000000000006 -0.8250000000000006,2.176 0,3.001 l4.786,4.786 c1.211,1.211 1.565,3.036 0.8950000000000031,4.611 l-2.032,4.782 c-0.6590000000000036,1.55 -2.18,2.556 -3.864,2.556 H-247.896826007843 C-249.06382600784303,-213.18626026582717 -250.01882600784302,-212.2312602658272 -250.01882600784302,-211.0642602658272 v11.67 c0,1.167 0.9550000000000006,2.122 2.122,2.122 h6.768 c1.7120000000000002,0 3.253,1.04 3.894,2.628 l1.944,4.818 c0.6300000000000028,1.562 0.266,3.349 -0.925,4.54 l-4.7490000000000006,4.7490000000000006 c-0.8250000000000006,0.8250000000000006 -0.8250000000000006,2.176 0,3.001 l8.252,8.252 c0.8250000000000006,0.8250000000000006 2.176,0.8250000000000006 3.001,0 l4.786,-4.786 c1.211,-1.211 3.036,-1.565 4.611,-0.8950000000000031 l4.781,2.032 c1.55,0.6590000000000036 2.556,2.18 2.556,3.864 v6.7170000000000005 c0,1.167 0.9550000000000006,2.122 2.122,2.122 h11.67 c1.167,0 2.122,-0.9550000000000006 2.122,-2.122 v-6.768 c0,-1.7120000000000002 1.04,-3.253 2.628,-3.894 l4.818,-1.944 c1.562,-0.6300000000000028 3.349,-0.266 4.54,0.925 l4.7490000000000006,4.75 c0.8250000000000006,0.8250000000000006 2.176,0.8250000000000006 3.001,0 l8.252,-8.252 c0.8250000000000006,-0.8250000000000006 0.8250000000000006,-2.176 0,-3.001 l-4.786,-4.786 c-1.211,-1.211 -1.565,-3.036 -0.8950000000000031,-4.611 l2.032,-4.782 c0.6590000000000036,-1.55 2.18,-2.556 3.864,-2.556 h6.7170000000000005 c1.167,0 2.122,-0.9550000000000006 2.122,-2.122 v-11.67 C-160.01882600784302,-212.2312602658272 -160.973826007843,-213.18626026582717 -162.14082600784303,-213.18626026582717 zM-205.01882600784302,-183.2982602658272 c-12.112,0 -21.931,-9.819 -21.931,-21.931 S-217.130826007843,-227.16026026582716 -205.01882600784302,-227.16026026582716 S-183.08782600784303,-217.34126026582717 -183.08782600784303,-205.22926026582718 S-192.90682600784302,-183.2982602658272 -205.01882600784302,-183.2982602658272 z" style="stroke: none; stroke-width: 1; stroke-dasharray: none; stroke-linecap: butt; stroke-linejoin: miter; stroke-miterlimit: 10; fill: rgb(255,255,255); fill-rule: nonzero; opacity: 1;" stroke-linecap="round" id="svg_3" filter=""/>
	<path d="M-205.01882600784302,-221.6062602658272 c9.03,0 16.377,7.347 16.377,16.377 S-195.98882600784302,-188.85226026582717 -205.01882600784302,-188.85226026582717 S-221.39582600784306,-196.19926026582718 -221.39582600784306,-205.22926026582718 S-214.04882600784302,-221.6062602658272 -205.01882600784302,-221.6062602658272 M-205.01882600784302,-228.91426026582718 c-13.081,0 -23.685,10.604 -23.685,23.685 S-218.09982600784303,-181.54426026582718 -205.01882600784302,-181.54426026582718 S-181.33382600784302,-192.14826026582716 -181.33382600784302,-205.22926026582718 S-191.937826007843,-228.91426026582718 -205.01882600784302,-228.91426026582718 L-205.01882600784302,-228.91426026582718 z" style="stroke: none; stroke-width: 1; stroke-dasharray: none; stroke-linecap: butt; stroke-linejoin: miter; stroke-miterlimit: 10; fill: rgb(255,255,255); fill-rule: nonzero; opacity: 1;" stroke-linecap="round" id="svg_4" filter=""/>
</g>
</g></g></svg>