<svg xmlns="http://www.w3.org/2000/svg" xmlns:xlink="http://www.w3.org/1999/xlink" version="1.1" style="" xml:space="preserve" width="300" height="300"><rect id="backgroundrect" width="100%" height="100%" x="0" y="0" fill="none" stroke="none"/>
















<g class="currentLayer" style=""><title>Layer 1</title><g id="svg_1" class="" fill="#ffffff" fill-opacity="1">
	<g id="svg_2" fill="#ffffff" fill-opacity="1">
		<path d="M150,0C67.157,0,0,67.162,0,150c0,82.841,67.157,150,150,150s150-67.159,150-150C300,67.162,232.843,0,150,0z     M205.846,158.266l-86.557,49.971c-1.32,0.765-2.799,1.144-4.272,1.144c-1.473,0-2.949-0.379-4.274-1.144    c-2.64-1.525-4.269-4.347-4.269-7.402V100.89c0-3.053,1.631-5.88,4.269-7.402c2.648-1.528,5.906-1.528,8.551,0l86.557,49.974    c2.645,1.53,4.274,4.352,4.269,7.402C210.12,153.916,208.494,156.741,205.846,158.266z" id="svg_3" fill="#ffffff" fill-opacity="1"/>
	</g>
</g><g id="svg_4">
</g><g id="svg_5">
</g><g id="svg_6">
</g><g id="svg_7">
</g><g id="svg_8">
</g><g id="svg_9">
</g><g id="svg_10">
</g><g id="svg_11">
</g><g id="svg_12">
</g><g id="svg_13">
</g><g id="svg_14">
</g><g id="svg_15">
</g><g id="svg_16">
</g><g id="svg_17">
</g><g id="svg_18">
</g></g></svg>