<svg xmlns="http://www.w3.org/2000/svg" xmlns:xlink="http://www.w3.org/1999/xlink" version="1.1" style="" xml:space="preserve" width="300.003" height="300.003"><rect id="backgroundrect" width="100%" height="100%" x="0" y="0" fill="none" stroke="none"/>
















<g class="currentLayer" style=""><title>Layer 1</title><g id="svg_1" class="selected" fill="#ffffff" fill-opacity="1">
	<g id="svg_2" fill="#ffffff" fill-opacity="1">
		<path d="M150.8274462351799,0 c-82.838,0 -150,67.159 -150,150 c0,82.838 67.162,150.003 150,150.003 c82.843,0 150,-67.165 150,-150.003 C300.8274462351799,67.159 233.6724462351799,0 150.8274462351799,0 zM135.2364462351799,194.538 c0,9.498 -7.7,17.198 -17.198,17.198 s-17.198,-7.7 -17.198,-17.198 V105.46 c0,-9.498 7.7,-17.198 17.198,-17.198 s17.198,7.7 17.198,17.198 V194.538 zM199.7814462351799,194.538 c0,9.498 -7.7010000000000005,17.198 -17.198,17.198 c-9.498,0 -17.198,-7.7 -17.198,-17.198 V105.46 c0,-9.498 7.7,-17.198 17.198,-17.198 s17.198,7.7 17.198,17.198 V194.538 z" id="svg_3" fill="#ffffff" fill-opacity="1"/>
	</g>
</g><g id="svg_4">
</g><g id="svg_5">
</g><g id="svg_6">
</g><g id="svg_7">
</g><g id="svg_8">
</g><g id="svg_9">
</g><g id="svg_10">
</g><g id="svg_11">
</g><g id="svg_12">
</g><g id="svg_13">
</g><g id="svg_14">
</g><g id="svg_15">
</g><g id="svg_16">
</g><g id="svg_17">
</g><g id="svg_18">
</g></g></svg>